<?xml version="1.0" encoding="UTF-8" standalone="no"?>
<!-- Created with Inkscape (http://www.inkscape.org/) -->

<svg
   width="300"
   height="300"
   viewBox="0 0 79.374999 79.374999"
   version="1.1"
   id="svg5"
   inkscape:version="1.1.2 (b8e25be833, 2022-02-05)"
   sodipodi:docname="html_css.svg"
   xmlns:inkscape="http://www.inkscape.org/namespaces/inkscape"
   xmlns:sodipodi="http://sodipodi.sourceforge.net/DTD/sodipodi-0.dtd"
   xmlns="http://www.w3.org/2000/svg"
   xmlns:svg="http://www.w3.org/2000/svg">
  <sodipodi:namedview
     id="namedview7"
     pagecolor="#ffffff"
     bordercolor="#666666"
     borderopacity="1.0"
     inkscape:pageshadow="2"
     inkscape:pageopacity="0.0"
     inkscape:pagecheckerboard="0"
     inkscape:document-units="mm"
     showgrid="false"
     inkscape:zoom="0.7198092"
     inkscape:cx="388.29734"
     inkscape:cy="339.67335"
     inkscape:window-width="1920"
     inkscape:window-height="1001"
     inkscape:window-x="-9"
     inkscape:window-y="-9"
     inkscape:window-maximized="1"
     inkscape:current-layer="layer1"
     width="300mm"
     units="px" />
  <defs
     id="defs2" />
  <g
     inkscape:label="Layer 1"
     inkscape:groupmode="layer"
     id="layer1">
    <g
       id="g27"
       transform="matrix(0.07906302,0,0,0.07917528,-0.28295783,5.4139435)">
      <path
         fill="#e34f26"
         d="M 71,460 30,0 h 451 l -41,460 -185,52"
         id="path9" />
      <path
         fill="#ef652a"
         d="M 256,472 405,431 440,37 H 256"
         id="path11" />
      <path
         fill="#ebebeb"
         d="m 256,208 h -75 l -5,-58 h 80 V 94 H 114 l 15,171 h 127 z m -1,147 -63,-17 -4,-45 h -56 l 7,89 116,32 z"
         id="path13" />
      <path
         fill="#ffffff"
         d="m 255,208 v 57 h 70 l -7,73 -63,17 v 59 l 116,-32 16,-174 z m 0,-114 v 56 h 137 l 5,-56 z"
         id="path15" />
    </g>
    <g
       id="g151"
       transform="matrix(0.32274871,0,0,0.32353351,39.000667,36.006045)">
      <path
         fill="#1572b6"
         d="M 18.814,114.123 8.76,1.352 h 110.48 l -10.064,112.754 -45.243,12.543 z"
         id="path127" />
      <path
         fill="#33a9dc"
         d="m 64.001,117.062 36.559,-10.136 8.601,-96.354 h -45.16 z"
         id="path129" />
      <path
         fill="#ffffff"
         d="M 64.001,51.429 H 82.303 L 83.567,37.266 H 64.001 V 23.435 h 34.682 l -0.332,3.711 -3.4,38.114 h -30.95 z"
         id="path131" />
      <path
         fill="#ebebeb"
         d="M 64.083,87.349 64.022,87.367 48.619,83.208 47.634,72.177 H 33.752 l 1.937,21.717 28.331,7.863 0.063,-0.018 z"
         id="path133" />
      <path
         fill="#ffffff"
         d="m 81.127,64.675 -1.666,18.522 -15.426,4.164 v 14.39 l 28.354,-7.858 0.208,-2.337 2.406,-26.881 z"
         id="path135" />
      <path
         fill="#ebebeb"
         d="M 64.048,23.435 V 37.266 H 30.64 l -0.277,-3.108 -0.63,-7.012 -0.331,-3.711 z M 64.001,51.431 V 65.262 H 48.792 l -0.277,-3.108 -0.631,-7.012 -0.33,-3.711 z"
         id="path137" />
    </g>
  </g>
</svg>
